<svg id="Capa_1" enable-background="new 0 0 510.719 510.719" height="512" viewBox="0 0 510.719 510.719" width="512" xmlns="http://www.w3.org/2000/svg"><g id="XMLID_76_"><path id="XMLID_78_" d="m151.479 117.118 27.37 47.41.108-.063.002.004 25.981-15.001-27.339-47.35 38.949-67.46h77.891l27.38 47.412 25.978-15.003-36.04-62.409h-112.53l-47.609 82.46h-78.3l-35.211-57.461-25.579 15.675 34.938 57.015-47.468 82.221 36.029 62.419 25.982-14.997-27.371-47.421 38.941-67.451z" fill="#2ad8f6"/><path id="XMLID_79_" d="m311.759 4.658h-55.692v30h38.374l27.38 47.412 25.978-15.003z" fill="#00c0f1"/><path id="XMLID_242_" d="m347.707 302.015.003-.007-25.98-14.999-27.411 47.479h-77.769l-38.949-67.46 27.339-47.349-25.981-15.001-.002.003-.108-.062-27.37 47.409h-54.759v30h54.9l38.799 67.2-39.777 64.383 25.523 15.767 40.089-64.89h78.064l27.4 47.469 25.983-14.998-27.34-47.366 27.439-47.524z" fill="#2ad8f6"/><path id="XMLID_80_" d="m347.8 302.069-.093-.054.003-.007-25.98-14.999-27.411 47.479h-38.252v30h38.251l27.4 47.469 25.983-14.998-27.34-47.366z" fill="#00c0f1"/><path id="XMLID_259_" d="m510.719 349.488-47.612-82.481 30.639-53.378-26.018-14.935-30.614 53.334h-54.614v30h54.638l38.943 67.46-38.943 67.46h-54.638v30h54.819l35.565 59.113 25.705-15.466-35.379-58.804z" fill="#00c0f1"/><path id="XMLID_260_" d="m321.809 122.167-27.369 47.401h-54.9v30h54.9l27.38 47.421 25.98-15.001-27.379-47.42 29.378-50.88v-4.03l-15.008.005z" fill="#2ad8f6"/><circle id="XMLID_1713_" cx="64.925" cy="267.03" fill="#75e2f8" r="31.798"/><path id="XMLID_1714_" d="m64.925 313.828c-25.805 0-46.798-20.994-46.798-46.798 0-25.805 20.994-46.798 46.798-46.798s46.798 20.994 46.798 46.798-20.994 46.798-46.798 46.798zm0-63.596c-9.263 0-16.798 7.536-16.798 16.798s7.536 16.798 16.798 16.798 16.798-7.536 16.798-16.798-7.536-16.798-16.798-16.798z" fill="#00c0f1"/><circle id="XMLID_1704_" cx="350.706" cy="431.944" fill="#00c0f1" r="31.798"/><path id="XMLID_1705_" d="m350.706 478.743c-25.805 0-46.798-20.994-46.798-46.798s20.993-46.798 46.798-46.798 46.799 20.994 46.799 46.798c-.001 25.804-20.995 46.798-46.799 46.798zm0-63.597c-9.263 0-16.798 7.536-16.798 16.798 0 9.263 7.535 16.798 16.798 16.798s16.799-7.536 16.799-16.798c-.001-9.262-7.537-16.798-16.799-16.798z" fill="#009ae4"/><circle id="XMLID_1700_" cx="212.745" cy="184.573" fill="#75e2f8" r="31.798"/><path id="XMLID_516_" d="m349.799 129.658-15.009.005-12.981-7.496-27.369 47.401h-37.379c-6.269-18.464-23.76-31.793-44.316-31.793-25.804 0-46.798 20.994-46.798 46.798 0 25.805 20.994 46.798 46.798 46.798 20.56 0 38.053-13.333 44.319-31.803h37.376l27.38 47.42 25.98-15.001-27.379-47.419 29.378-50.881zm-137.054 71.713c-9.262 0-16.798-7.536-16.798-16.798s7.536-16.798 16.798-16.798 16.798 7.536 16.798 16.798c-.001 9.262-7.536 16.798-16.798 16.798z" fill="#00c0f1"/><circle id="XMLID_1708_" cx="350.706" cy="267.03" fill="#00c0f1" r="31.798"/><path id="XMLID_1710_" d="m350.706 313.828c-25.805 0-46.798-20.994-46.798-46.798 0-25.805 20.993-46.798 46.798-46.798s46.799 20.994 46.799 46.798c-.001 25.804-20.995 46.798-46.799 46.798zm0-63.596c-9.263 0-16.798 7.536-16.798 16.798s7.535 16.798 16.798 16.798 16.799-7.536 16.799-16.798c-.001-9.262-7.537-16.798-16.799-16.798z" fill="#009ae4"/><circle id="XMLID_1692_" cx="350.706" cy="102.116" fill="#00c0f1" r="31.798"/><path id="XMLID_1697_" d="m350.706 148.914c-25.805 0-46.798-20.994-46.798-46.798s20.993-46.798 46.798-46.798 46.799 20.994 46.799 46.798-20.995 46.798-46.799 46.798zm0-63.596c-9.263 0-16.798 7.536-16.798 16.798s7.535 16.798 16.798 16.798 16.799-7.536 16.799-16.798-7.537-16.798-16.799-16.798z" fill="#009ae4"/></g></svg>