<svg xmlns="http://www.w3.org/2000/svg" version="1.1" xmlns:xlink="http://www.w3.org/1999/xlink" xmlns:svgjs="http://svgjs.com/svgjs" width="1440" height="560" preserveAspectRatio="none" viewBox="0 0 1440 560"><g mask="url(&quot;#SvgjsMask1010&quot;)" fill="none"><path d="M700 371L699 729" stroke-width="8" stroke="url(#SvgjsLinearGradient1011)" stroke-linecap="round" class="Up"></path><path d="M612 102L611 448" stroke-width="8" stroke="url(#SvgjsLinearGradient1012)" stroke-linecap="round" class="Down"></path><path d="M369 539L368 296" stroke-width="10" stroke="url(#SvgjsLinearGradient1013)" stroke-linecap="round" class="Down"></path><path d="M423 63L422 -175" stroke-width="8" stroke="url(#SvgjsLinearGradient1014)" stroke-linecap="round" class="Up"></path><path d="M404 29L403 387" stroke-width="6" stroke="url(#SvgjsLinearGradient1013)" stroke-linecap="round" class="Down"></path><path d="M344 298L343 98" stroke-width="6" stroke="url(#SvgjsLinearGradient1011)" stroke-linecap="round" class="Up"></path><path d="M292 227L291 427" stroke-width="8" stroke="url(#SvgjsLinearGradient1011)" stroke-linecap="round" class="Up"></path><path d="M120 267L119 557" stroke-width="8" stroke="url(#SvgjsLinearGradient1012)" stroke-linecap="round" class="Down"></path><path d="M275 69L274 -292" stroke-width="10" stroke="url(#SvgjsLinearGradient1013)" stroke-linecap="round" class="Down"></path><path d="M625 229L624 376" stroke-width="6" stroke="url(#SvgjsLinearGradient1014)" stroke-linecap="round" class="Up"></path><path d="M100 513L99 923" stroke-width="8" stroke="url(#SvgjsLinearGradient1011)" stroke-linecap="round" class="Up"></path><path d="M29 69L28 -259" stroke-width="10" stroke="url(#SvgjsLinearGradient1014)" stroke-linecap="round" class="Up"></path><path d="M553 132L552 -201" stroke-width="6" stroke="url(#SvgjsLinearGradient1013)" stroke-linecap="round" class="Down"></path><path d="M1244 196L1243 -202" stroke-width="8" stroke="url(#SvgjsLinearGradient1013)" stroke-linecap="round" class="Down"></path><path d="M280 308L279 -37" stroke-width="8" stroke="url(#SvgjsLinearGradient1013)" stroke-linecap="round" class="Down"></path><path d="M1289 198L1288 32" stroke-width="8" stroke="url(#SvgjsLinearGradient1014)" stroke-linecap="round" class="Up"></path><path d="M1325 196L1324 -137" stroke-width="10" stroke="url(#SvgjsLinearGradient1012)" stroke-linecap="round" class="Down"></path><path d="M702 367L701 511" stroke-width="8" stroke="url(#SvgjsLinearGradient1011)" stroke-linecap="round" class="Up"></path><path d="M526 465L525 751" stroke-width="6" stroke="url(#SvgjsLinearGradient1014)" stroke-linecap="round" class="Up"></path><path d="M1216 471L1215 78" stroke-width="6" stroke="url(#SvgjsLinearGradient1013)" stroke-linecap="round" class="Down"></path><path d="M914 284L913 -129" stroke-width="8" stroke="url(#SvgjsLinearGradient1013)" stroke-linecap="round" class="Down"></path><path d="M418 411L417 60" stroke-width="10" stroke="url(#SvgjsLinearGradient1013)" stroke-linecap="round" class="Down"></path><path d="M564 392L563 539" stroke-width="8" stroke="url(#SvgjsLinearGradient1012)" stroke-linecap="round" class="Down"></path><path d="M472 295L471 623" stroke-width="8" stroke="url(#SvgjsLinearGradient1014)" stroke-linecap="round" class="Up"></path><path d="M1420 53L1419 -361" stroke-width="6" stroke="url(#SvgjsLinearGradient1011)" stroke-linecap="round" class="Up"></path><path d="M930 345L929 133" stroke-width="6" stroke="url(#SvgjsLinearGradient1013)" stroke-linecap="round" class="Down"></path><path d="M126 42L125 378" stroke-width="6" stroke="url(#SvgjsLinearGradient1014)" stroke-linecap="round" class="Up"></path><path d="M1217 28L1216 218" stroke-width="10" stroke="url(#SvgjsLinearGradient1013)" stroke-linecap="round" class="Down"></path><path d="M727 140L726 -71" stroke-width="6" stroke="url(#SvgjsLinearGradient1013)" stroke-linecap="round" class="Down"></path><path d="M1051 553L1050 961" stroke-width="6" stroke="url(#SvgjsLinearGradient1014)" stroke-linecap="round" class="Up"></path><path d="M1190 102L1189 -266" stroke-width="10" stroke="url(#SvgjsLinearGradient1013)" stroke-linecap="round" class="Down"></path><path d="M1281 79L1280 431" stroke-width="8" stroke="url(#SvgjsLinearGradient1011)" stroke-linecap="round" class="Up"></path><path d="M627 409L626 737" stroke-width="8" stroke="url(#SvgjsLinearGradient1013)" stroke-linecap="round" class="Down"></path><path d="M401 45L400 248" stroke-width="6" stroke="url(#SvgjsLinearGradient1013)" stroke-linecap="round" class="Down"></path><path d="M871 431L870 78" stroke-width="8" stroke="url(#SvgjsLinearGradient1014)" stroke-linecap="round" class="Up"></path><path d="M575 518L574 215" stroke-width="8" stroke="url(#SvgjsLinearGradient1013)" stroke-linecap="round" class="Down"></path></g><defs><mask id="SvgjsMask1010"><rect width="1440" height="560" fill="#ffffff"></rect></mask><linearGradient x1="0%" y1="100%" x2="0%" y2="0%" id="SvgjsLinearGradient1011"><stop stop-color="rgba(255, 97, 29, 0)" offset="0"></stop><stop stop-color="rgba(255, 97, 29, 1)" offset="1"></stop></linearGradient><linearGradient x1="0%" y1="0%" x2="0%" y2="100%" id="SvgjsLinearGradient1012"><stop stop-color="rgba(255, 97, 29, 0)" offset="0"></stop><stop stop-color="rgba(255, 97, 29, 1)" offset="1"></stop></linearGradient><linearGradient x1="0%" y1="0%" x2="0%" y2="100%" id="SvgjsLinearGradient1013"><stop stop-color="rgba(227, 41, 41, 0)" offset="0"></stop><stop stop-color="rgba(227, 41, 41, 1)" offset="1"></stop></linearGradient><linearGradient x1="0%" y1="100%" x2="0%" y2="0%" id="SvgjsLinearGradient1014"><stop stop-color="rgba(227, 41, 41, 0)" offset="0"></stop><stop stop-color="rgba(227, 41, 41, 1)" offset="1"></stop></linearGradient></defs></svg>