<svg xmlns="http://www.w3.org/2000/svg" version="1.1" xmlns:xlink="http://www.w3.org/1999/xlink" xmlns:svgjs="http://svgjs.com/svgjs" width="1440" height="560" preserveAspectRatio="none" viewBox="0 0 1440 560"><g mask="url(&quot;#SvgjsMask1029&quot;)" fill="none"><rect width="1440" height="560" x="0" y="0" fill="rgba(129, 53, 49, 1)"></rect><path d="M99 495L98 645" stroke-width="10" stroke="url(#SvgjsLinearGradient1030)" stroke-linecap="round" class="Down"></path><path d="M176 391L175 123" stroke-width="10" stroke="url(#SvgjsLinearGradient1031)" stroke-linecap="round" class="Up"></path><path d="M647 436L646 850" stroke-width="6" stroke="url(#SvgjsLinearGradient1031)" stroke-linecap="round" class="Up"></path><path d="M201 538L200 228" stroke-width="8" stroke="url(#SvgjsLinearGradient1030)" stroke-linecap="round" class="Down"></path><path d="M750 377L749 727" stroke-width="6" stroke="url(#SvgjsLinearGradient1031)" stroke-linecap="round" class="Up"></path><path d="M743 424L742 96" stroke-width="6" stroke="url(#SvgjsLinearGradient1031)" stroke-linecap="round" class="Up"></path><path d="M435 285L434 90" stroke-width="10" stroke="url(#SvgjsLinearGradient1030)" stroke-linecap="round" class="Down"></path><path d="M564 62L563 -188" stroke-width="6" stroke="url(#SvgjsLinearGradient1030)" stroke-linecap="round" class="Down"></path><path d="M389 386L388 164" stroke-width="8" stroke="url(#SvgjsLinearGradient1031)" stroke-linecap="round" class="Up"></path><path d="M1083 97L1082 423" stroke-width="6" stroke="url(#SvgjsLinearGradient1030)" stroke-linecap="round" class="Down"></path><path d="M505 350L504 20" stroke-width="6" stroke="url(#SvgjsLinearGradient1031)" stroke-linecap="round" class="Up"></path><path d="M1388 350L1387 736" stroke-width="8" stroke="url(#SvgjsLinearGradient1031)" stroke-linecap="round" class="Up"></path><path d="M874 367L873 29" stroke-width="8" stroke="url(#SvgjsLinearGradient1031)" stroke-linecap="round" class="Up"></path><path d="M747 393L746 188" stroke-width="10" stroke="url(#SvgjsLinearGradient1031)" stroke-linecap="round" class="Up"></path><path d="M56 450L55 795" stroke-width="10" stroke="url(#SvgjsLinearGradient1030)" stroke-linecap="round" class="Down"></path><path d="M617 557L616 941" stroke-width="8" stroke="url(#SvgjsLinearGradient1031)" stroke-linecap="round" class="Up"></path><path d="M466 340L465 78" stroke-width="6" stroke="url(#SvgjsLinearGradient1030)" stroke-linecap="round" class="Down"></path><path d="M388 234L387 440" stroke-width="8" stroke="url(#SvgjsLinearGradient1030)" stroke-linecap="round" class="Down"></path><path d="M599 38L598 273" stroke-width="8" stroke="url(#SvgjsLinearGradient1031)" stroke-linecap="round" class="Up"></path><path d="M1249 125L1248 -265" stroke-width="8" stroke="url(#SvgjsLinearGradient1030)" stroke-linecap="round" class="Down"></path><path d="M257 394L256 623" stroke-width="10" stroke="url(#SvgjsLinearGradient1030)" stroke-linecap="round" class="Down"></path><path d="M1304 303L1303 63" stroke-width="6" stroke="url(#SvgjsLinearGradient1031)" stroke-linecap="round" class="Up"></path><path d="M788 332L787 741" stroke-width="10" stroke="url(#SvgjsLinearGradient1030)" stroke-linecap="round" class="Down"></path><path d="M820 401L819 194" stroke-width="8" stroke="url(#SvgjsLinearGradient1030)" stroke-linecap="round" class="Down"></path><path d="M1432 43L1431 -104" stroke-width="8" stroke="url(#SvgjsLinearGradient1031)" stroke-linecap="round" class="Up"></path><path d="M1129 519L1128 210" stroke-width="6" stroke="url(#SvgjsLinearGradient1030)" stroke-linecap="round" class="Down"></path><path d="M1400 204L1399 609" stroke-width="8" stroke="url(#SvgjsLinearGradient1031)" stroke-linecap="round" class="Up"></path><path d="M254 473L253 743" stroke-width="6" stroke="url(#SvgjsLinearGradient1031)" stroke-linecap="round" class="Up"></path><path d="M387 145L386 419" stroke-width="8" stroke="url(#SvgjsLinearGradient1031)" stroke-linecap="round" class="Up"></path><path d="M987 33L986 -194" stroke-width="10" stroke="url(#SvgjsLinearGradient1031)" stroke-linecap="round" class="Up"></path><path d="M842 0L841 413" stroke-width="10" stroke="url(#SvgjsLinearGradient1030)" stroke-linecap="round" class="Down"></path><path d="M538 378L537 7" stroke-width="6" stroke="url(#SvgjsLinearGradient1030)" stroke-linecap="round" class="Down"></path><path d="M759 12L758 383" stroke-width="8" stroke="url(#SvgjsLinearGradient1030)" stroke-linecap="round" class="Down"></path><path d="M2 184L1 -133" stroke-width="8" stroke="url(#SvgjsLinearGradient1030)" stroke-linecap="round" class="Down"></path><path d="M1183 526L1182 899" stroke-width="6" stroke="url(#SvgjsLinearGradient1031)" stroke-linecap="round" class="Up"></path><path d="M204 194L203 414" stroke-width="8" stroke="url(#SvgjsLinearGradient1030)" stroke-linecap="round" class="Down"></path></g><defs><mask id="SvgjsMask1029"><rect width="1440" height="560" fill="#ffffff"></rect></mask><linearGradient x1="0%" y1="0%" x2="0%" y2="100%" id="SvgjsLinearGradient1030"><stop stop-color="rgba(227, 41, 41, 0)" offset="0"></stop><stop stop-color="rgba(227, 41, 41, 1)" offset="1"></stop></linearGradient><linearGradient x1="0%" y1="100%" x2="0%" y2="0%" id="SvgjsLinearGradient1031"><stop stop-color="rgba(227, 41, 41, 0)" offset="0"></stop><stop stop-color="rgba(227, 41, 41, 1)" offset="1"></stop></linearGradient></defs></svg>