<svg xmlns="http://www.w3.org/2000/svg" version="1.1" xmlns:xlink="http://www.w3.org/1999/xlink" xmlns:svgjs="http://svgjs.com/svgjs" width="1440" height="560" preserveAspectRatio="none" viewBox="0 0 1440 560"><g mask="url(&quot;#SvgjsMask1011&quot;)" fill="none"><path d="M 0,123 C 57.6,143.6 172.8,237.4 288,226 C 403.2,214.6 460.8,58.6 576,66 C 691.2,73.4 748.8,259.2 864,263 C 979.2,266.8 1036.8,91.4 1152,85 C 1267.2,78.6 1382.4,201.8 1440,231L1440 560L0 560z" fill="rgba(255, 97, 29, 1)"></path><path d="M 0,390 C 96,403.6 288,463.2 480,458 C 672,452.8 768,367 960,364 C 1152,361 1344,427.2 1440,443L1440 560L0 560z" fill="rgba(152, 33, 33, 1)"></path></g><defs><mask id="SvgjsMask1011"><rect width="1440" height="560" fill="#ffffff"></rect></mask></defs></svg>